<?xml version="1.0" encoding="utf-8"?>
<!-- Generator: Adobe Illustrator 17.0.0, SVG Export Plug-In . SVG Version: 6.00 Build 0)  -->
<!DOCTYPE svg PUBLIC "-//W3C//DTD SVG 1.1//EN" "http://www.w3.org/Graphics/SVG/1.1/DTD/svg11.dtd">
<svg version="1.1" id="Layer_1" xmlns="http://www.w3.org/2000/svg" xmlns:xlink="http://www.w3.org/1999/xlink" x="0px" y="0px"
	 width="130px" viewBox="0 0 754.428 858.937" enable-background="new 0 0 754.428 858.937"
	 xml:space="preserve">
<text transform="matrix(1 0 0 1 403.5097 832.3171)" fill="#f4ba00" font-family="'Avenir-Heavy'" font-size="137.3062" letter-spacing="-6">check</text>
<text transform="matrix(1 0 0 1 19.0449 832.3171)" fill="#4D4D4D" font-family="'Avenir-Heavy'" font-size="137.3062" letter-spacing="-6">school</text>
<g>
	<g>
		<g enable-background="new    ">
			<g>
				<polygon fill="#F9CC91" points="362.415,405.817 361.623,685.388 83.615,524.88 84.408,245.309 				"/>
			</g>
			<g>
				<polygon fill="#F9C06E" points="362.415,405.817 619.39,256.479 618.597,536.051 361.623,685.388 				"/>
			</g>
			<g>
				<polygon fill="#F9C06E" points="84.408,245.309 341.382,95.972 619.39,256.479 362.415,405.817 				"/>
			</g>
		</g>
	</g>
	<g>
		<polygon fill="#E0D0C1" points="361.623,13.768 84.408,245.309 362.415,405.738 362.415,14.514 		"/>
		<polygon fill="#EADCD0" points="619.526,256.48 361.623,13.768 362.415,405.738 362.551,405.817 		"/>
	</g>
	<g>
		<polygon fill="#808080" points="361.695,13.768 282.992,79.503 361.919,125.049 		"/>
		<polygon fill="#999999" points="362.487,14.513 362.263,14.302 361.695,13.768 361.919,125.049 362.487,125.376 362.623,125.455 
			435.419,83.15 		"/>
	</g>
	<g>
		<polygon fill="#808080" points="233.949,493.312 233.614,611.244 178.895,579.651 179.229,461.72 		"/>
	</g>
</g>
</svg>
